<svg width="20" height="20" viewBox="0 0 20 20" fill="none" xmlns="http://www.w3.org/2000/svg">
<path d="M10 1.25C5.16797 1.25 1.25 5.16797 1.25 10C1.25 14.832 5.16797 18.75 10 18.75C14.832 18.75 18.75 14.832 18.75 10C18.75 5.16797 14.832 1.25 10 1.25ZM10.7129 12.1641C9.85547 13.3711 8.13281 13.7227 6.78906 13.2051C5.44141 12.6914 4.48438 11.2676 4.59961 9.81641C4.62891 8.04102 6.26367 6.48438 8.03906 6.54492C8.89062 6.50586 9.69141 6.875 10.3438 7.39648C10.0645 7.71289 9.77734 8.01758 9.46875 8.30078C8.68555 7.75977 7.57031 7.60547 6.78711 8.23047C5.66602 9.00586 5.61523 10.8359 6.69336 11.6699C7.74219 12.6211 9.72461 12.1484 10.0156 10.6914C9.35938 10.6816 8.69922 10.6914 8.04297 10.6699C8.04102 10.2773 8.03906 9.88672 8.04102 9.49414C9.13867 9.49023 10.2383 9.48828 11.3379 9.49805C11.4023 10.4219 11.2793 11.4023 10.7129 12.1641ZM15.4492 10.4785C15.1211 10.4824 14.793 10.4844 14.4648 10.4863C14.4609 10.8145 14.459 11.1426 14.459 11.4707H13.4766C13.4727 11.1426 13.4727 10.8164 13.4707 10.4883C13.1426 10.4844 12.8145 10.4824 12.4863 10.4785V9.5C12.8145 9.49609 13.1426 9.49414 13.4707 9.49414C13.4727 9.16602 13.4766 8.83789 13.4785 8.50977H14.459L14.4648 9.49414C14.793 9.49805 15.1211 9.49805 15.4492 9.5V10.4785Z" fill="#0BB0F0"/>
</svg>
