<svg width="17" height="18" viewBox="0 0 17 18" fill="none" xmlns="http://www.w3.org/2000/svg">
<g clip-path="url(#clip0_1221_6975)">
<path d="M16.9958 17.5003V17.4996H17V11.2649C17 8.21478 16.3434 5.86523 12.7776 5.86523C11.0635 5.86523 9.91314 6.8059 9.44352 7.69769H9.39394V6.14998H6.01306V17.4996H9.53348V11.8797C9.53348 10.4 9.81398 8.96915 11.6464 8.96915C13.452 8.96915 13.4789 10.6578 13.4789 11.9746V17.5003H16.9958Z" fill="#0BB0F0"/>
<path d="M0.28064 6.15039H3.80531V17.5H0.28064V6.15039Z" fill="#0BB0F0"/>
<path d="M2.04142 0.5C0.914458 0.5 0 1.41446 0 2.54142C0 3.66838 0.914458 4.60196 2.04142 4.60196C3.16838 4.60196 4.08283 3.66838 4.08283 2.54142C4.08213 1.41446 3.16767 0.5 2.04142 0.5V0.5Z" fill="#0BB0F0"/>
</g>
<defs>
<clipPath id="clip0_1221_6975">
<rect width="17" height="17" fill="white" transform="translate(0 0.5)"/>
</clipPath>
</defs>
</svg>
